HIERARCHY
ROOT Hips
{
  OFFSET 57.8838 95.319 338.509
  CHANNELS 6 Xposition Yposition Zposition Zrotation Xrotation Yrotation
  JOINT LeftUpLeg
  {
    OFFSET 8.64259 1.95398 -2.38835
    CHANNELS 3 Zrotation Xrotation Yrotation
    JOINT LeftLeg
    {
      OFFSET 43.7702 0 0
      CHANNELS 3 Zrotation Xrotation Yrotation
      JOINT LeftFoot
      {
        OFFSET 40.6238 0 0
        CHANNELS 3 Zrotation Xrotation Yrotation
        JOINT LeftToeBase
        {
          OFFSET 12.7242 0 0
          CHANNELS 3 Zrotation Xrotation Yrotation
          End Site
          {
            OFFSET 0 0 0
          }
        }
      }
    }
  }
  JOINT RightUpLeg
  {
    OFFSET -8.2249 1.95398 -2.59336
    CHANNELS 3 Zrotation Xrotation Yrotation
    JOINT RightLeg
    {
      OFFSET 43.5653 0 0
      CHANNELS 3 Zrotation Xrotation Yrotation
      JOINT RightFoot
      {
        OFFSET 40.6238 0 0
        CHANNELS 3 Zrotation Xrotation Yrotation
        JOINT RightToeBase
        {
          OFFSET 12.7242 0 0
          CHANNELS 3 Zrotation Xrotation Yrotation
          End Site
          {
            OFFSET 0 0 0
          }
        }
      }
    }
  }
  JOINT Spine
  {
    OFFSET 0.165834 0.87714 6.61349
    CHANNELS 3 Zrotation Xrotation Yrotation
    JOINT Spine1
    {
      OFFSET 7.38963 1.71661e-005 0
      CHANNELS 3 Zrotation Xrotation Yrotation
      JOINT Spine2
      {
        OFFSET 11.9445 1.14441e-005 0
        CHANNELS 3 Zrotation Xrotation Yrotation
        JOINT Spine3
        {
          OFFSET 14.7254 4.19617e-005 0
          CHANNELS 3 Zrotation Xrotation Yrotation
          JOINT Spine4
          {
            OFFSET 10.9679 0 0
            CHANNELS 3 Zrotation Xrotation Yrotation
            JOINT RightShoulder
            {
              OFFSET 2.46616 -1.6653 3.69651
              CHANNELS 3 Zrotation Xrotation Yrotation
              JOINT RightArm
              {
                OFFSET 13.0012 0 0
                CHANNELS 3 Zrotation Xrotation Yrotation
                JOINT RightForeArm
                {
                  OFFSET 28.7848 1.62311e-005 0
                  CHANNELS 3 Zrotation Xrotation Yrotation
                  JOINT RightHand
                  {
                    OFFSET 26.5688 1.62095e-005 0
                    CHANNELS 3 Zrotation Xrotation Yrotation
                    End Site
                    {
                      OFFSET 0 0 0
                    }
                  }
                }
              }
            }
            JOINT LeftShoulder
            {
              OFFSET 2.38034 -1.29275 -3.7523
              CHANNELS 3 Zrotation Xrotation Yrotation
              JOINT LeftArm
              {
                OFFSET 16.3182 6.07031e-005 0
                CHANNELS 3 Zrotation Xrotation Yrotation
                JOINT LeftForeArm
                {
                  OFFSET 27.0901 0 0
                  CHANNELS 3 Zrotation Xrotation Yrotation
                  JOINT LeftHand
                  {
                    OFFSET 24.5451 1.51738e-005 0
                    CHANNELS 3 Zrotation Xrotation Yrotation
                    End Site
                    {
                      OFFSET 0 0 0
                    }
                  }
                }
              }
            }
            JOINT Neck
            {
              OFFSET 5.0226 -0.0266342 0
              CHANNELS 3 Zrotation Xrotation Yrotation
              JOINT Head
              {
                OFFSET 6.69364 2.86102e-005 0
                CHANNELS 3 Zrotation Xrotation Yrotation
                End Site
                {
                  OFFSET 0 0 0
                }
              }
            }
          }
        }
      }
    }
  }
}
MOTION
Frames:	12
Frame Time:	0.0416667
-78.1648 87.9782 82.1346 90.6681 48.0123 91.3438 -178.605 38.1658 89.6028 -27.9879 12.7921 -4.25195 53.9338 -8.57054 7.88327 31.6783 1.05607 3.29209 169.027 2.90837 93.5762 -60.8546 -6.90269 -0.26822 59.6513 2.15446 5.5324 33.2544 -6.69745 -9.63437 -0.129314 9.28067 -89.4267 8.3096 -0.00562977 1.12796 -3.36186 0.0440202 1.12711 -25.8932 -0.344327 1.07414 -5.88057 -0.344344 1.07413 91.8286 -58.1623 -96.5171 18.0926 -25.315 -6.67 -0.966459 -3.13625 -25.4495 -8.06089 -0.325522 -0.589971 -83.9309 -53.2385 88.2057 -26.2392 -26.7022 -17.4049 0.700672 47.2097 0.175673 3.30667 -0.578352 -17.6803 19.928 0.555572 -6.72687 -11.483 1.84745 9.43118 
-75.4976 88.4608 78.0502 82.4668 50.8556 98.3708 -177.164 42.9142 88.1708 -33.1309 14.1703 -4.98947 56.8442 -4.0953 7.06345 36.6909 3.30461 4.64276 166.571 26.3066 94.5425 -75.3622 -7.82765 0.353269 63.9667 -1.74956 7.85259 35.3714 -9.94766 -8.93564 -0.227804 10.2885 -89.7021 6.2993 -0.328733 0.592741 -5.37172 -0.302329 0.606633 -27.9067 -0.491675 0.466541 -7.89409 -0.49168 0.466538 92.1483 -57.3623 -96.2018 20.4988 -24.7874 1.49231 -0.309019 -7.47747 -19.7801 -5.85087 -0.21981 -0.919534 -83.3892 -52.0429 88.8791 -23.2926 -20.7425 -15.1641 -3.39528 32.7312 -3.13121 5.44103 -0.967663 -17.2475 25.8088 0.322986 -4.64177 -6.65413 1.65862 8.67492 
-73.3345 87.5225 74.3218 73.7156 53.3041 105.872 -177.749 48.7148 85.7678 -40.2563 15.2323 -3.64386 58.5965 0.54503 8.69448 47.8102 8.83542 8.19874 166.678 45.3142 98.1794 -72.4704 -13.7977 1.68167 69.4533 -6.77584 9.51157 41.2583 -19.0593 -8.97244 -0.514961 11.2618 -90.1292 4.34937 -1.08133 -0.246313 -7.32116 -1.09115 -0.198489 -29.859 -0.95733 -0.559937 -9.84636 -0.957331 -0.559941 93.8659 -55.8996 -93.9776 24.4787 -18.8089 12.0647 1.24832 -7.55196 -18.4255 -10.6521 -0.469091 -0.0794735 -83.4827 -50.6075 88.5936 -21.8086 -20.1502 -8.43137 -3.89173 26.773 -5.78779 2.56062 -0.704423 -18.612 31.9257 0.380359 -4.86534 -2.47925 2.32629 9.92364 
-70.7307 84.241 70.6999 67.9957 53.4911 110.111 -176.28 55.1002 81.6702 -52.1867 13.7334 -1.63586 60.3209 6.70011 11.9732 56.3149 13.8624 11.6752 169.622 61.9519 95.885 -65.1031 -6.07951 1.33672 71.6708 -6.29157 12.0215 39.0064 -15.8429 -9.92073 -0.485569 12.1635 -90.4581 2.54115 -1.1486 -0.912285 -9.1296 -1.18765 -0.860867 -31.6645 -0.821343 -1.2153 -11.6519 -0.821355 -1.21532 93.2753 -56.4748 -94.7412 26.753 -10.0635 21.7348 2.83816 -5.42738 -17.2412 -12.4197 -0.538604 -0.147342 -85.9663 -51.2889 84.9694 -21.9275 -21.9194 -6.18596 -5.6094 20.8173 -0.00834876 1.5438 -0.5577 -18.5058 34.6009 -0.438882 -7.03207 3.40474 3.31979 13.4716 
-66.1513 78.9218 65.113 66.509 56.3496 108.075 -171.744 56.8774 71.7155 -66.1995 14.0461 0.0415879 61.0076 13.5772 20.9212 59.8485 15.6489 11.2733 177.785 70.6656 85.4956 -67.3053 -10.253 0.408717 70.4297 -5.14148 9.47921 38.5884 -15.1391 -9.7392 -0.378848 12.6231 -90.8236 1.61609 -1.07174 -1.63362 -10.0554 -1.14258 -1.58488 -32.583 -0.531326 -1.8801 -12.5704 -0.53132 -1.8801 90.4884 -59.1897 -98.1896 28.3028 -5.46067 20.3435 4.54889 -1.45575 -11.829 -7.52757 -0.126107 -3.86162 -89.6265 -56.0446 80.4725 -24.7143 -20.7309 -20.1588 -4.66275 22.0713 -0.00017051 5.28411 -0.755816 -17.1242 31.6658 -1.05698 -1.59913 9.47978 0.914072 11.9578 
-58.9832 73.8981 57.7482 69.8283 57.2078 106.586 -172.652 53.8122 71.7697 -80.1164 13.8308 2.71568 60.5639 18.2185 29.0132 63.3119 18.4278 13.8957 172.871 69.4133 94.782 -79.9267 -11.5255 -1.09422 69.5531 -10.3517 -0.993506 40.8207 -17.4016 -5.56249 -0.0166605 12.1424 -91.1432 2.57916 -0.480681 -2.23573 -9.09358 -0.578592 -2.21244 -31.6134 0.21327 -2.27684 -11.6007 0.21328 -2.27685 86.5289 -61.6515 -103.037 14.498 -16.0117 -5.16889 4.84772 1.47861 -12.0432 -0.393678 -0.0270546 -4.65475 -90.9772 -56.6463 78.7202 -28.6103 -13.3445 -44.0752 -5.13213 22.846 0.391644 13.0044 -1.39682 -15.1895 33.7615 -0.62984 2.10426 5.90953 -0.750694 9.99609 
-50.9888 71.2114 49.9 76.7456 55.379 104.309 -176.756 47.1643 78.699 -92.3928 14.0818 4.94873 61.6903 17.5679 27.1248 68.0165 23.3736 19.8912 166.435 60.1422 106.474 -86.6137 -12.7302 -1.0207 67.1529 -17.9942 -14.4556 46.0032 -23.5698 -2.38334 -0.289811 11.0617 -91.0401 4.73575 -1.00516 -2.02157 -6.9363 -1.09317 -1.9754 -29.4594 -0.351325 -2.2301 -9.44672 -0.351311 -2.2301 87.0957 -52.1264 -104.676 1.76345 -1.63125 -50.1097 3.20621 -3.38676 -17.9556 -6.80568 -0.148863 -2.87911 -91.1031 -48.3462 76.6977 -24.059 -12.7025 -68.8306 -2.13903 24.1893 -3.87391 21.9445 -2.0315 -13.4702 31.9056 0.831857 -0.103241 -4.60808 0.545507 11.6397 
-41.4465 74.6544 39.8802 74.7392 50.3457 103.76 -176.964 35.3518 80.7093 -85.3129 11.3769 4.44031 63.3282 15.8024 20.2076 70.1873 24.6724 19.6387 172.035 48.8807 102.852 -82.4409 -13.2903 -1.20749 68.0176 -22.869 -16.2702 48.3496 -27.7724 -4.74486 -0.0544471 9.40941 -90.6296 8.05135 -0.384497 -1.22199 -3.6201 -0.437891 -1.2039 -26.1506 0.000509294 -1.28104 -6.13801 0.000520379 -1.28105 94.7218 -27.3943 -97.9467 6.25406 19.4511 -79.8484 -2.61271 -11.6264 -30.9095 -11.812 -0.282075 -2.49247 -88.2525 -33.4134 77.6271 -20.5615 -20.2618 -87.9001 13.1899 26.3202 -25.5004 20.743 -1.9032 -13.2171 33.5643 0.824624 -3.89101 -17.7591 0.570502 13.5929 
-26.4337 87.6176 24.3051 76.2695 46.4313 100.375 -176.186 12.3558 86.4864 -56.4417 18.1582 1.76592 54.6468 -4.4085 5.69746 57.6706 15.661 13.6183 178.408 24.6867 93.5307 -59.7037 -17.6397 -1.92902 67.9014 -5.11793 4.58275 40.5941 -16.704 -4.1651 0.114734 7.71488 -89.9735 11.4439 0.240131 0.0244511 -0.226977 0.240976 0.0138515 -22.7622 0.221677 0.0954865 -2.74956 0.221673 0.0954902 99.9409 -13.6616 -88.4688 7.22155 34.7013 -83.9896 -4.83147 -13.8491 -38.3968 -13.013 -0.128938 -4.21738 -84.7526 -26.028 82.5316 -15.3628 -32.0878 -87.4504 20.9176 23.0641 -41.7955 24.785 -2.2468 -13.4025 13.9406 1.13058 -9.22458 -12.9516 2.10752 14.8924 
-10.3558 102.733 8.4505 78.5145 52.3178 98.1136 -177.721 13.5219 87.9211 -56.3431 15.5792 2.91546 42.2302 -19.7608 -5.94415 4.76815 -13.0284 9.08429 175.63 -0.676067 89.9752 -29.7462 -13.9295 -2.03961 42.5287 27.0085 28.6965 12.13 24.8389 -5.56356 0.0185123 6.88298 -89.8246 13.1093 0.121178 0.334081 1.43834 0.135781 0.328418 -21.0965 0.0151745 0.35506 -1.08381 0.0151799 0.355052 103.079 -12.343 -79.7008 5.00655 45.8058 -73.1642 -1.30734 -10.781 -32.9435 -12.0618 -0.0314183 -5.04181 -82.5265 -28.7964 87.5671 -8.83858 -37.4885 -74.9078 14.1356 19.4247 -34.3989 26.8866 -1.75642 -10.7442 -12.1335 1.13853 -10.4377 -2.06073 1.49479 13.5388 
1.007 112.59 -2.80915 86.9649 50.7047 92.5118 -176.248 29.2519 89.3843 -64.5434 18.5816 1.1255 47.3576 -15.1322 -1.73343 8.61068 -11.1901 10.1339 173.321 0.516153 89.024 -59.8943 -26.3926 -1.10272 43.5936 27.1282 15.7125 3.83153 36.6996 -5.54604 0.325964 8.12499 -89.8699 10.6242 0.709391 0.204375 -1.04661 0.717729 0.172938 -23.5829 0.61518 0.408131 -3.57029 0.615198 0.408138 102.984 -10.0012 -79.8051 -20.4536 46.3348 -33.2555 5.28224 9.39057 -18.1976 -9.266 -0.0360018 -4.97785 -81.3117 -25.2628 89.6056 12.9288 -42.1661 -33.1734 2.1842 18.3873 -10.0776 20.0516 -1.31625 -10.3738 -9.75057 2.43061 -14.4521 -1.20778 3.35728 17.0223 
11.5899 118.314 -13.8985 88.2926 42.7956 94.2568 179.861 38.0112 94.5168 -47.2267 17.9812 0.515801 46.1618 -16.8509 -3.86565 11.3756 -9.1199 7.81615 175.709 15.636 86.4486 -102.002 -26.1119 -1.81567 51.0206 15.9353 4.0906 10.132 27.6621 -5.57159 0.239303 9.12754 -89.7211 8.61717 0.601187 0.513164 -3.05371 0.623192 0.486211 -25.5887 0.41916 0.670113 -5.57604 0.419156 0.670114 99.8368 -14.6965 -88.4752 -27.2004 7.66461 -2.78708 4.3762 2.92379 -8.625 -4.12975 -0.0306276 -4.98876 -81.2233 -25.8782 89.8531 25.2775 -38.2649 11.9478 2.30322 37.0508 0.0043547 12.3356 -0.74991 -11.9717 -6.04124 5.71383 -23.3757 -1.26902 7.92181 26.9053 
